<?xml version="1.0"?>
<svg xmlns="http://www.w3.org/2000/svg" xmlns:xlink="http://www.w3.org/1999/xlink" xmlns:svgjs="http://svgjs.com/svgjs" version="1.1" width="256" height="256" x="0" y="0" viewBox="0 0 512 512" style="enable-background:new 0 0 512 512" xml:space="preserve">
	<g>
		<g>
			<path d="M490.667,234.667H277.333V21.333C277.333,9.551,267.782,0,256,0c-11.782,0-21.333,9.551-21.333,21.333v213.333H21.333   C9.551,234.667,0,244.218,0,256c0,11.782,9.551,21.333,21.333,21.333h213.333v213.333c0,11.782,9.551,21.333,21.333,21.333   c11.782,0,21.333-9.551,21.333-21.333V277.333h213.333c11.782,0,21.333-9.551,21.333-21.333   C512,244.218,502.449,234.667,490.667,234.667z" fill="#ffffff" data-original="#000000"/>
		</g>
	</g>
</svg>
