<?xml version="1.0"?>
<svg xmlns="http://www.w3.org/2000/svg" xmlns:xlink="http://www.w3.org/1999/xlink" xmlns:svgjs="http://svgjs.com/svgjs" version="1.1" width="256" height="256" x="0" y="0" viewBox="0 0 24 24" style="enable-background:new 0 0 512 512" xml:space="preserve">
	<g>
		<path d="M24,.5c0,.276-.224,.5-.5,.5H9.5c-.276,0-.5-.224-.5-.5s.224-.5,.5-.5h14c.276,0,.5,.224,.5,.5Zm-3.5,4.5H9.5c-.276,0-.5,.224-.5,.5s.224,.5,.5,.5h11c.276,0,.5-.224,.5-.5s-.224-.5-.5-.5Zm-3,5H9.5c-.276,0-.5,.224-.5,.5s.224,.5,.5,.5h8c.276,0,.5-.224,.5-.5s-.224-.5-.5-.5Zm-3,5h-5c-.276,0-.5,.224-.5,.5s.224,.5,.5,.5h5c.276,0,.5-.224,.5-.5s-.224-.5-.5-.5Zm-5.354,4.561l-3.146,3.146V.5c0-.276-.224-.5-.5-.5s-.5,.224-.5,.5V22.707l-3.146-3.146c-.195-.195-.512-.195-.707,0s-.195,.512,0,.707l3.293,3.293c.292,.292,.676,.438,1.061,.438s.768-.146,1.061-.438l3.293-3.293c.195-.195,.195-.512,0-.707s-.512-.195-.707,0Z" fill="#ffffff" data-original="#000000"/>
	</g>
</svg>
